<svg width="50" height="15" viewBox="0 0 50 15" fill="none" xmlns="http://www.w3.org/2000/svg">
<path d="M8.43412 2.71144C8.92234 2.0787 9.24579 1.23716 9.16645 0.389282C8.45243 0.427247 7.59194 0.876493 7.08541 1.49658C6.63381 2.02808 6.23102 2.91392 6.34698 3.73016C7.14034 3.81241 7.9398 3.3252 8.43412 2.71144V2.71144ZM10.1917 8.10873C10.1734 6.26745 11.6442 5.40059 11.7113 5.34365C10.8874 4.07184 9.59365 3.92631 9.15425 3.901C8.00083 3.8314 7.03049 4.57803 6.47513 4.57803C5.91978 4.57803 5.0837 3.93896 4.17439 3.94529C2.98435 3.96427 1.84923 4.66661 1.24506 5.77391C9.40033e-05 7.98851 0.958229 11.2788 2.16658 13.0694C2.75855 13.9616 3.46036 14.955 4.38188 14.9107C5.26068 14.8727 5.60854 14.3159 6.66432 14.3159C7.7201 14.3159 8.03744 14.9107 8.96506 14.8917C9.9293 14.8727 10.5396 13.9996 11.1071 13.1074C11.7784 12.0887 12.0531 11.1206 12.0714 11.0573C12.0531 11.032 10.21 10.2917 10.1917 8.10873V8.10873ZM30.337 4.85011C28.0179 4.85011 26.5655 6.12825 26.4556 7.88727H28.2742C28.4451 7.01409 29.1469 6.47625 30.2576 6.47625C31.4355 6.47625 32.1495 7.12798 32.1495 8.20997V8.96926L29.5741 9.12111C27.3405 9.24766 26.0711 10.3043 26.0711 12.0064C26.0711 13.7654 27.3649 14.9487 29.1957 14.9487C30.4285 14.9487 31.6308 14.259 32.1739 13.1707H32.2349V14.7842H34.0658V8.07076C34.0719 6.10927 32.6194 4.85011 30.337 4.85011V4.85011ZM32.1495 11.1396C32.1495 12.4114 31.0937 13.3731 29.745 13.3731C28.7075 13.3731 28.024 12.8227 28.024 11.9558C28.024 11.1206 28.677 10.5891 29.8426 10.5068L32.1556 10.3613V11.1396H32.1495ZM48.0472 1.37003V6.65342H48.0228C47.4919 5.57776 46.4056 4.86909 45.0568 4.86909C42.6951 4.86909 41.1145 6.83059 41.1145 9.90571C41.1145 12.9808 42.6951 14.955 45.0752 14.955C46.4483 14.955 47.5224 14.2337 48.0777 13.12L48.1082 13.1454V14.7905H50.0001V1.37003H48.0472ZM45.5817 13.2529C44.0438 13.2529 43.104 11.9621 43.104 9.90571C43.104 7.85563 44.0682 6.55851 45.5817 6.55851C47.0708 6.55851 48.0533 7.88727 48.0533 9.90571C48.0594 11.9495 47.0708 13.2529 45.5817 13.2529ZM37.8312 6.69139H37.7946V4.97666H35.9637V14.7842H37.9166V8.94395C37.9166 7.55824 38.6367 6.70404 39.8817 6.70404C40.254 6.70404 40.6323 6.75466 40.7849 6.81161V4.94502C40.6445 4.91338 40.3699 4.86909 40.0892 4.86909C38.9846 4.86909 38.1424 5.54612 37.8312 6.69139V6.69139ZM19.6754 13.196C17.3076 13.196 15.8002 11.2281 15.8002 8.08975C15.8002 4.99564 17.3259 2.99618 19.6632 2.99618C21.4208 2.99618 22.7878 4.15409 23.154 5.8625H25.1374C24.8018 3.07843 22.5925 1.17388 19.6632 1.17388C16.0565 1.17388 13.7557 3.84405 13.7557 8.08342C13.7557 12.3544 16.0382 14.9993 19.6632 14.9993C22.6292 14.9993 24.6614 13.3605 25.1496 10.6081H23.154C22.7512 12.2405 21.4818 13.196 19.6754 13.196V13.196Z" fill="url(#paint0_linear_3801_229)"/>
<defs>
<linearGradient id="paint0_linear_3801_229" x1="25.3311" y1="0.389282" x2="25.3311" y2="14.9993" gradientUnits="userSpaceOnUse">
<stop stop-color="white"/>
<stop offset="1" stop-color="white" stop-opacity="0.75"/>
</linearGradient>
</defs>
</svg>
