<svg width="103" height="21" viewBox="0 0 103 21" fill="none" xmlns="http://www.w3.org/2000/svg">
<path d="M11.2784 7.4375H8.78977C8.74432 7.11553 8.65152 6.82955 8.51136 6.57955C8.37121 6.32576 8.19129 6.10985 7.97159 5.93182C7.75189 5.75379 7.49811 5.61742 7.21023 5.52273C6.92614 5.42803 6.61742 5.38068 6.28409 5.38068C5.68182 5.38068 5.1572 5.5303 4.71023 5.82955C4.26326 6.125 3.91667 6.55682 3.67045 7.125C3.42424 7.68939 3.30114 8.375 3.30114 9.18182C3.30114 10.0114 3.42424 10.7083 3.67045 11.2727C3.92045 11.8371 4.26894 12.2633 4.71591 12.5511C5.16288 12.839 5.67992 12.983 6.26705 12.983C6.59659 12.983 6.90152 12.9394 7.18182 12.8523C7.46591 12.7652 7.7178 12.6383 7.9375 12.4716C8.1572 12.3011 8.33902 12.0947 8.48295 11.8523C8.63068 11.6098 8.73295 11.3333 8.78977 11.0227L11.2784 11.0341C11.214 11.5682 11.053 12.0833 10.7955 12.5795C10.5417 13.072 10.1989 13.5133 9.76705 13.9034C9.33902 14.2898 8.82765 14.5966 8.23295 14.8239C7.64205 15.0473 6.97348 15.1591 6.22727 15.1591C5.18939 15.1591 4.26136 14.9242 3.44318 14.4545C2.62879 13.9848 1.98485 13.3049 1.51136 12.4148C1.04167 11.5246 0.806818 10.447 0.806818 9.18182C0.806818 7.91288 1.04545 6.83333 1.52273 5.94318C2 5.05303 2.64773 4.375 3.46591 3.90909C4.28409 3.43939 5.20455 3.20455 6.22727 3.20455C6.90152 3.20455 7.52652 3.29924 8.10227 3.48864C8.68182 3.67803 9.19508 3.95455 9.64205 4.31818C10.089 4.67803 10.4527 5.11932 10.733 5.64205C11.017 6.16477 11.1989 6.76326 11.2784 7.4375ZM23.7358 9.18182C23.7358 10.4508 23.4953 11.5303 23.0142 12.4205C22.5369 13.3106 21.8854 13.9905 21.0597 14.4602C20.2377 14.9261 19.3134 15.1591 18.2869 15.1591C17.2528 15.1591 16.3248 14.9242 15.5028 14.4545C14.6809 13.9848 14.0313 13.3049 13.554 12.4148C13.0767 11.5246 12.8381 10.447 12.8381 9.18182C12.8381 7.91288 13.0767 6.83333 13.554 5.94318C14.0313 5.05303 14.6809 4.375 15.5028 3.90909C16.3248 3.43939 17.2528 3.20455 18.2869 3.20455C19.3134 3.20455 20.2377 3.43939 21.0597 3.90909C21.8854 4.375 22.5369 5.05303 23.0142 5.94318C23.4953 6.83333 23.7358 7.91288 23.7358 9.18182ZM21.2415 9.18182C21.2415 8.35985 21.1184 7.66667 20.8722 7.10227C20.6297 6.53788 20.2869 6.10985 19.8438 5.81818C19.4006 5.52652 18.8816 5.38068 18.2869 5.38068C17.6922 5.38068 17.1733 5.52652 16.7301 5.81818C16.2869 6.10985 15.9422 6.53788 15.696 7.10227C15.4536 7.66667 15.3324 8.35985 15.3324 9.18182C15.3324 10.0038 15.4536 10.697 15.696 11.2614C15.9422 11.8258 16.2869 12.2538 16.7301 12.5455C17.1733 12.8371 17.6922 12.983 18.2869 12.983C18.8816 12.983 19.4006 12.8371 19.8438 12.5455C20.2869 12.2538 20.6297 11.8258 20.8722 11.2614C21.1184 10.697 21.2415 10.0038 21.2415 9.18182ZM29.6832 15H25.5582V3.36364H29.7173C30.8878 3.36364 31.8954 3.59659 32.7401 4.0625C33.5848 4.52462 34.2344 5.18939 34.6889 6.05682C35.1473 6.92424 35.3764 7.96212 35.3764 9.17045C35.3764 10.3826 35.1473 11.4242 34.6889 12.2955C34.2344 13.1667 33.581 13.8352 32.7287 14.3011C31.8802 14.767 30.8651 15 29.6832 15ZM28.0185 12.892H29.581C30.3082 12.892 30.92 12.7633 31.4162 12.5057C31.9162 12.2443 32.2912 11.8409 32.5412 11.2955C32.795 10.7462 32.9219 10.0379 32.9219 9.17045C32.9219 8.31061 32.795 7.60795 32.5412 7.0625C32.2912 6.51705 31.9181 6.11553 31.4219 5.85795C30.9257 5.60038 30.3139 5.47159 29.5866 5.47159H28.0185V12.892ZM37.1989 15V3.36364H45.0398V5.39205H39.6591V8.16477H44.6364V10.1932H39.6591V12.9716H45.0625V15H37.1989Z" fill="#959595"/>
<path d="M46.9957 15V3.36364H51.5866C52.4692 3.36364 53.2211 3.5322 53.8423 3.86932C54.4635 4.20265 54.937 4.66667 55.2628 5.26136C55.5923 5.85227 55.7571 6.53409 55.7571 7.30682C55.7571 8.07955 55.5904 8.76136 55.2571 9.35227C54.9238 9.94318 54.4408 10.4034 53.8082 10.733C53.1795 11.0625 52.4181 11.2273 51.5241 11.2273H48.598V9.25568H51.1264C51.5999 9.25568 51.9901 9.17424 52.2969 9.01136C52.6075 8.8447 52.8385 8.61553 52.9901 8.32386C53.1454 8.02841 53.223 7.68939 53.223 7.30682C53.223 6.92045 53.1454 6.58333 52.9901 6.29545C52.8385 6.00379 52.6075 5.77841 52.2969 5.61932C51.9863 5.45644 51.5923 5.375 51.1151 5.375H49.456V15H46.9957ZM58.017 15H55.3807L59.3977 3.36364H62.5682L66.5795 15H63.9432L61.0284 6.02273H60.9375L58.017 15ZM57.8523 10.4261H64.0795V12.3466H57.8523V10.4261ZM66.1108 3.36364H68.8665L71.5199 8.375H71.6335L74.2869 3.36364H77.0426L72.7983 10.8864V15H70.3551V10.8864L66.1108 3.36364Z" fill="#FFCF2D"/>
<path fill-rule="evenodd" clip-rule="evenodd" d="M87.2028 13.8618L87.1995 13.8662L87.1963 13.8707C87.0183 14.1227 86.6196 14.1968 86.3078 13.9766C86.0581 13.8003 85.9831 13.4075 86.1957 13.097C86.5128 12.6927 86.7431 12.2201 86.8944 11.7581C87.0519 11.2771 87.1251 10.7305 87.1223 10.1945C87.1194 9.65841 87.0404 9.11266 86.8778 8.63337C86.7216 8.17299 86.4862 7.70284 86.1648 7.30198C85.9489 6.99381 86.0198 6.60021 86.2675 6.42126C86.577 6.19772 86.9765 6.26753 87.1571 6.51765L87.1604 6.52213L87.1637 6.52654C87.5638 7.05409 87.8919 7.64022 88.088 8.21527C88.2944 8.89174 88.4259 9.54611 88.4293 10.1875C88.4329 10.8625 88.3684 11.5013 88.1207 12.1302C87.851 12.8151 87.5898 13.34 87.2028 13.8618ZM90.0954 15.1145L90.1032 15.1035L90.1104 15.092C90.9971 13.6713 91.5085 11.957 91.499 10.1712C91.4895 8.38573 90.9601 6.67741 90.0587 5.2665C89.8634 4.95673 89.9511 4.59048 90.2804 4.35265C90.5015 4.19292 90.9166 4.24947 91.1629 4.57956C92.1806 6.19419 92.7953 8.14603 92.8061 10.1642C92.8172 12.2513 92.2238 14.1398 91.2224 15.7662C90.9908 16.085 90.6362 16.1743 90.3304 15.9936C89.9988 15.7507 89.9382 15.337 90.0954 15.1145ZM95.2861 2.45728L95.2948 2.47453L95.3049 2.49101C96.6839 4.73922 97.4502 7.33247 97.4652 10.1394C97.4801 12.945 96.7421 15.5452 95.3884 17.8072C95.1808 18.141 94.8304 18.235 94.4752 18.0697C94.1519 17.859 94.065 17.5098 94.2339 17.1572C95.3852 15.1125 96.1011 12.7031 96.0875 10.1467C96.074 7.6018 95.4085 5.19622 94.1569 3.1514C93.9875 2.80225 94.0714 2.45452 94.3909 2.24141C94.7763 2.05729 95.1518 2.19224 95.2861 2.45728ZM99.3691 0.317699L99.3751 0.329484L99.3817 0.340919C101.053 3.22945 102.035 6.53188 102.054 10.115C102.073 13.6944 101.128 17.0039 99.491 19.9079C99.2831 20.2378 98.9344 20.3302 98.5808 20.1657C98.2585 19.9556 98.1712 19.608 98.3379 19.2565C99.915 16.5648 100.764 13.4464 100.747 10.1219C100.729 6.7889 99.7717 3.68254 98.2427 1.01744C98.0511 0.628392 98.1861 0.247358 98.4535 0.111868C98.846 -0.0870074 99.2325 0.0479926 99.3691 0.317699Z" fill="#FFCF2D"/>
</svg>
